<svg xmlns="http://www.w3.org/2000/svg" viewBox="0 0 128 128">
  <g transform="translate(21 21) scale(.78)" fill="none" stroke="#000" stroke-width="9.5" stroke-linejoin="round">
    <path d="M54.919.001c-4.584.021-8.961.412-12.813 1.094C30.76 3.099 28.7 7.295 28.7 15.032v10.219h26.813v3.406H18.638c-7.793 0-14.616 4.684-16.75 13.594-2.462 10.213-2.571 16.586 0 27.25 1.906 7.938 6.458 13.594 14.25 13.594h9.219v-12.25c0-8.85 7.657-16.656 16.75-16.656h26.781c7.455 0 13.406-6.138 13.406-13.625V15.032c0-7.266-6.13-12.725-13.406-13.937C64.282.328 59.502-.02 54.919.001ZM40.419 8.22c2.77 0 5.031 2.299 5.031 5.125 0 2.816-2.262 5.094-5.031 5.094-2.78 0-5.031-2.278-5.031-5.094 0-2.826 2.252-5.125 5.031-5.125Z"/>
    <path d="M85.638 28.657v11.906c0 9.231-7.826 17-16.75 17H42.106c-7.336 0-13.406 6.278-13.406 13.625V96.72c0 7.266 6.319 11.54 13.406 13.625 8.487 2.496 16.626 2.947 26.782 0 6.75-1.954 13.406-5.888 13.406-13.625V86.501H55.513v-3.406h40.187c7.792 0 10.696-5.435 13.406-13.594 2.799-8.399 2.68-16.476 0-27.25-1.926-7.757-5.604-13.594-13.406-13.594ZM70.575 93.313c2.78 0 5.031 2.277 5.031 5.094 0 2.826-2.252 5.125-5.031 5.125-2.77 0-5.031-2.299-5.031-5.125 0-2.816 2.262-5.094 5.031-5.094Z"/>
  </g>
</svg>
